<svg width="1413" height="1147" viewBox="0 0 1413 1147" fill="none" xmlns="http://www.w3.org/2000/svg">
<path d="M32.9728 385.439L941.5 1145C943.5 1146.5 946 1147 947.5 1145C949 1143 948.5 1141.5 946.5 1139.5L80.2728 292.939C58.7728 277.939 29.6728 285.939 12.9728 311.239C-4.72722 343.239 9.37278 371.239 32.9728 385.439Z" fill="url(#a)"/>
<path d="M559.773 413.239C561.873 376.239 532.573 345.039 495.573 344.539L54.3728 280.039C26.4728 279.639 2.97278 300.739 0.272781 328.539C-2.72722 358.339 19.3728 384.839 49.0728 387.439L493.373 489.739C529.973 492.939 557.773 450.039 559.773 413.239Z" fill="url(#b)"/>
<path d="M357.273 739.439C376.673 651.839 411.473 490.239 431.173 398.939C439.073 362.039 476.073 338.939 512.773 347.939C548.473 356.839 570.373 392.639 561.873 428.539L480.973 767.839C472.873 802.039 438.473 823.039 404.273 814.839C370.673 806.639 349.773 773.139 357.273 739.439Z" fill="url(#c)"/>
<path d="M378.073 787.439C395.473 812.939 428.973 821.639 456.573 807.839L1287.27 391.339C1434.57 320.939 1438.37 188.839 1369.67 92.8389C1267.67 -34.5611 1137.27 -40.5611 961.773 135.939L393.873 702.339C366.173 721.539 359.173 759.539 378.073 787.439Z" fill="url(#d)"/>
<defs>
<linearGradient id="a" x1="-2.06743" y1="543.909" x2="1014.71" y2="873.31" gradientUnits="userSpaceOnUse">
<stop stop-color="#F5389A"/>
<stop offset="1" stop-color="#FF66D0"/>
</linearGradient>
<linearGradient id="b" x1="58.1792" y1="380.914" x2="447.65" y2="388.171" gradientUnits="userSpaceOnUse">
<stop stop-color="#F5389A"/>
<stop offset="1" stop-color="#A154FE"/>
</linearGradient>
<linearGradient id="c" x1="406.191" y1="744.98" x2="508.244" y2="413.515" gradientUnits="userSpaceOnUse">
<stop stop-color="#50CBEB"/>
<stop offset="1" stop-color="#A154FE"/>
</linearGradient>
<linearGradient id="d" x1="592.612" y1="909.228" x2="1252.97" y2="7.65191" gradientUnits="userSpaceOnUse">
<stop stop-color="#50CBEB"/>
<stop offset="1" stop-color="#669AFF"/>
</linearGradient>
</defs>
</svg>
